# xmcd
#
# Track frame offsets: 
#        150
#        21260
#        35917
#        52375
#        73257
#        89652
#        105262
#        126402
#        140147
#        153960
#        173000
#        188832
#        213150
#        232217
#        247855
#        263225
#        278280
#
# Disc length: 4376 seconds
#
# Revision: 2
# Processed by: cddbd v1.5.2PL0 Copyright (c) Steve Scherf et al.
# Submitted via: ExactAudioCopy v0.95b3
#
DISCID=fd111611
DTITLE=Eolika - Kolekcija
DYEAR=1996
DGENRE=Latvian Pop
TTITLE0=Engelis
TTITLE1=Es neesmu Dzeina Fonda
TTITLE2=Zemenu lauks
TTITLE3=Noktirne
TTITLE4=Tu smejies sapni
TTITLE5=Mezrozite
TTITLE6=Sapnu sala
TTITLE7=Tala uguns
TTITLE8=Liela zive
TTITLE9=Sapnis
TTITLE10=Milas dzeriens
TTITLE11=Rudens darzs
TTITLE12=Tava atnaksana
TTITLE13=Celinieka muzs
TTITLE14=Pasaule, pasaulit
TTITLE15=Eolika
TTITLE16=R. Paula dziesmu popurijs
EXTD=
EXTT0=
EXTT1=
EXTT2=
EXTT3=
EXTT4=
EXTT5=
EXTT6=
EXTT7=
EXTT8=
EXTT9=
EXTT10=
EXTT11=
EXTT12=
EXTT13=
EXTT14=
EXTT15=
EXTT16=
PLAYORDER=
